<?xml version="1.0" standalone="no"?>
<!DOCTYPE svg PUBLIC "-//W3C//DTD SVG 20010904//EN"
 "http://www.w3.org/TR/2001/REC-SVG-20010904/DTD/svg10.dtd">
<svg version="1.0" xmlns="http://www.w3.org/2000/svg"
 width="512.000000pt" height="512.000000pt" viewBox="0 0 512.000000 512.000000"
 preserveAspectRatio="xMidYMid meet">

<g transform="translate(0.000000,512.000000) scale(0.100000,-0.100000)"
fill="#222222" stroke="none">
<path d="M617 3318 c-279 -281 -508 -646 -584 -933 -106 -401 70 -637 520
-696 115 -15 227 -3 396 42 154 41 251 79 1096 426 402 165 1246 511 1877 769
631 258 1146 470 1144 471 -6 7 -2305 -566 -2951 -736 -899 -235 -896 -234
-1055 -235 -146 0 -232 21 -316 78 -227 154 -252 445 -69 810 29 58 51 106 48
106 -2 0 -50 -46 -106 -102z"/>
</g>
</svg>
